<svg width="785" height="360" viewBox="0 0 785 360" fill="none" xmlns="http://www.w3.org/2000/svg">
<g style="mix-blend-mode:hard-light" filter="url(#filter0_d_0_1)">
<path d="M768 17H17V343H298.625L315.971 325.895H731.776L768 290.176V17Z" stroke="#6BE2BE" stroke-width="4" stroke-linecap="round"/>
</g>
<g style="mix-blend-mode:screen" opacity="0.8" clip-path="url(#clip0_0_1)">
<path d="M517.673 129.643C519.076 133.561 520.276 137.55 521.267 141.592L525.33 140.594C524.306 136.415 523.061 132.293 521.598 128.245L517.673 129.643Z" fill="#6BE2BE"/>
<path d="M319.487 74.5139C316.224 77.3154 313.085 80.3028 310.112 83.3934L313.148 86.2775C316.017 83.2902 319.073 80.4061 322.212 77.7078L319.487 74.5139Z" fill="#6BE2BE"/>
<path d="M528.662 161.808C528.371 157.517 527.855 153.243 527.117 149.005L522.978 149.694C523.698 153.795 524.207 157.93 524.503 162.084L528.662 161.808Z" fill="#6BE2BE"/>
<path d="M500.572 90.9583L497.31 93.6083C499.951 96.8274 502.421 100.182 504.711 103.658L508.161 101.359C505.81 97.7655 503.278 94.294 500.572 90.9583Z" fill="#6BE2BE"/>
<path d="M494.895 84.4809C491.957 81.3431 488.86 78.3565 485.617 75.5326L482.858 78.6852C485.996 81.4164 488.989 84.309 491.826 87.3513L494.895 84.4809Z" fill="#6BE2BE"/>
<path d="M529 170.901V170.426H524.813V170.881C524.813 175.011 524.578 179.216 524.185 183.333L528.324 183.753C528.765 179.512 529 175.169 529 170.901Z" fill="#6BE2BE"/>
<path d="M509.022 110.762C511.078 114.371 512.946 118.083 514.617 121.885L518.445 120.219C516.72 116.28 514.798 112.43 512.685 108.683L509.022 110.762Z" fill="#6BE2BE"/>
<path d="M478.939 70.0672C475.507 67.4482 471.943 65.006 468.261 62.7502L466.081 66.3227C469.62 68.4772 473.076 70.8588 476.428 73.3644L478.939 70.0672Z" fill="#6BE2BE"/>
<path d="M521.777 213.082L517.818 211.706C516.436 215.629 514.85 219.478 513.065 223.235L516.852 225.032C518.693 221.134 520.337 217.145 521.777 213.082Z" fill="#6BE2BE"/>
<path d="M527.179 192.274L523.04 191.586C522.342 195.682 521.433 199.739 520.315 203.742L524.357 204.871C525.513 200.723 526.455 196.518 527.179 192.274Z" fill="#6BE2BE"/>
<path d="M295.695 109.529L292.073 107.464C289.906 111.182 287.935 115.009 286.168 118.932L289.976 120.646C291.684 116.842 293.593 113.132 295.695 109.529Z" fill="#6BE2BE"/>
<path d="M279.001 139.19L283.043 140.236C284.088 136.206 285.338 132.231 286.789 128.328L282.85 126.869C281.361 130.909 280.076 135.021 279.001 139.19Z" fill="#6BE2BE"/>
<path d="M296.861 241.999L300.31 239.659C297.961 236.217 295.796 232.654 293.825 228.983L290.176 230.965C292.216 234.753 294.447 238.436 296.861 241.999Z" fill="#6BE2BE"/>
<path d="M310.422 258.691L313.437 255.787C310.542 252.789 307.804 249.644 305.235 246.363L301.944 248.931C304.596 252.331 307.426 255.589 310.422 258.691Z" fill="#6BE2BE"/>
<path d="M506.008 243.583C508.5 240.066 510.803 236.419 512.907 232.659L509.237 230.642C507.202 234.256 504.967 237.807 502.601 241.187L506.008 243.583Z" fill="#6BE2BE"/>
<path d="M492.191 260.068C495.241 257.015 498.122 253.798 500.821 250.431L497.572 247.816C494.945 251.054 492.157 254.157 489.218 257.115L492.191 260.068Z" fill="#6BE2BE"/>
<path d="M275.421 160.377L279.56 160.728C279.912 156.598 280.457 152.468 281.209 148.338L277.139 147.587C276.343 151.818 275.77 156.087 275.421 160.377Z" fill="#6BE2BE"/>
<path d="M283.167 201.973C282.111 197.944 281.264 193.864 280.629 189.748L276.49 190.395C277.16 194.649 278.044 198.867 279.139 203.033L283.167 201.973Z" fill="#6BE2BE"/>
<path d="M290.135 221.542C288.408 217.76 286.879 213.891 285.555 209.951L281.574 211.265C282.955 215.346 284.541 219.355 286.327 223.277L290.135 221.542Z" fill="#6BE2BE"/>
<path d="M304.373 89.8087C301.61 93.1166 299.017 96.5628 296.605 100.134L300.055 102.474C302.39 99.0127 304.907 95.6766 307.594 92.4795L304.373 89.8087Z" fill="#6BE2BE"/>
<path d="M275 170.881C275 174.543 275.145 178.239 275.462 181.853L279.601 181.495C279.305 178.005 279.16 174.432 279.16 170.881V169.022L275 168.96V170.881Z" fill="#6BE2BE"/>
<path d="M316.603 264.687C319.791 267.579 323.123 270.311 326.585 272.871L329.075 269.512C325.75 267.048 322.48 264.37 319.418 261.589L316.603 264.687Z" fill="#6BE2BE"/>
<path d="M483.168 262.849C480.05 265.602 476.76 268.19 473.373 270.62L475.821 274C479.319 271.494 482.72 268.796 485.934 265.981L483.168 262.849Z" fill="#6BE2BE"/>
<path d="M328.724 72.5109C332.069 70.0466 335.567 67.6925 339.126 65.5725L336.995 62C333.285 64.1995 329.693 66.5913 326.233 69.1656L328.724 72.5109Z" fill="#6BE2BE"/>
<path d="M457.941 167.625C449.291 167.267 440.627 167.184 431.997 166.978V140.924H405.708C405.577 135.769 405.453 130.599 405.204 125.444C404.577 110.3 403.673 95.157 401.935 80.0137C400.196 95.157 399.299 110.3 398.692 125.444C398.416 130.606 398.292 135.769 398.168 140.924H371.955V166.957C363.27 167.184 354.599 167.246 345.914 167.645C327.234 168.251 308.581 169.146 289.907 170.901C308.581 172.636 327.234 173.558 345.914 174.164C354.599 174.522 363.27 174.605 371.955 174.811V200.844H398.168C398.292 205.999 398.396 211.169 398.672 216.345C399.279 231.488 400.196 246.632 401.935 261.775C403.673 246.632 404.597 231.488 405.204 216.345C405.473 211.162 405.577 206.02 405.708 200.844H431.997V174.79C440.627 174.584 449.291 174.501 457.941 174.102C476.615 173.496 495.268 172.595 513.948 170.86C495.268 169.153 476.615 168.251 457.941 167.625ZM421.533 174.887V190.374H382.447V151.373H421.533V174.887Z" fill="#6BE2BE"/>
<path d="M372.051 107.224V100.953H331.911V141.007H338.195C338.194 136.57 339.069 132.177 340.77 128.078C342.471 123.978 344.965 120.254 348.109 117.117C351.253 113.979 354.986 111.491 359.094 109.793C363.202 108.096 367.605 107.223 372.051 107.224Z" fill="#6BE2BE"/>
<path d="M472.062 141.007V100.953H431.928V107.224C436.374 107.223 440.776 108.096 444.884 109.793C448.991 111.49 452.724 113.978 455.868 117.114C459.011 120.251 461.505 123.974 463.207 128.073C464.909 132.171 465.784 136.564 465.784 141H472.062V141.007Z" fill="#6BE2BE"/>
<path d="M338.195 200.754H331.911V240.802H372.051V234.538C363.072 234.538 354.461 230.979 348.111 224.643C341.762 218.307 338.195 209.714 338.195 200.754Z" fill="#6BE2BE"/>
<path d="M465.784 200.754C465.784 209.714 462.217 218.307 455.868 224.643C449.519 230.979 440.907 234.538 431.928 234.538V240.802H472.062V200.754H465.784Z" fill="#6BE2BE"/>
</g>
<defs>
<filter id="filter0_d_0_1" x="0" y="0" width="785" height="360" filterUnits="userSpaceOnUse" color-interpolation-filters="sRGB">
<feFlood flood-opacity="0" result="BackgroundImageFix"/>
<feColorMatrix in="SourceAlpha" type="matrix" values="0 0 0 0 0 0 0 0 0 0 0 0 0 0 0 0 0 0 127 0" result="hardAlpha"/>
<feOffset/>
<feGaussianBlur stdDeviation="7.5"/>
<feColorMatrix type="matrix" values="0 0 0 0 0.419608 0 0 0 0 0.886275 0 0 0 0 0.745098 0 0 0 0.8 0"/>
<feBlend mode="normal" in2="BackgroundImageFix" result="effect1_dropShadow_0_1"/>
<feBlend mode="normal" in="SourceGraphic" in2="effect1_dropShadow_0_1" result="shape"/>
</filter>
<clipPath id="clip0_0_1">
<rect width="254" height="212" fill="white" transform="translate(275 62)"/>
</clipPath>
</defs>
</svg>
