<svg width="24" height="24" viewBox="0 0 24 24" fill="none" xmlns="http://www.w3.org/2000/svg">
<path d="M14.2901 17.29L13.0001 18.59V13C13.0001 12.7348 12.8948 12.4804 12.7072 12.2929C12.5197 12.1054 12.2654 12 12.0001 12C11.7349 12 11.4806 12.1054 11.293 12.2929C11.1055 12.4804 11.0001 12.7348 11.0001 13V18.59L9.71013 17.29C9.6169 17.1968 9.50621 17.1228 9.38438 17.0724C9.26256 17.0219 9.13199 16.9959 9.00013 16.9959C8.86828 16.9959 8.73771 17.0219 8.61588 17.0724C8.49406 17.1228 8.38337 17.1968 8.29013 17.29C8.1969 17.3833 8.12293 17.4939 8.07247 17.6158C8.02201 17.7376 7.99604 17.8682 7.99604 18C7.99604 18.1319 8.02201 18.2624 8.07247 18.3843C8.12293 18.5061 8.1969 18.6168 8.29013 18.71L11.2901 21.71C11.3852 21.8011 11.4974 21.8724 11.6201 21.92C11.7398 21.9729 11.8693 22.0002 12.0001 22.0002C12.131 22.0002 12.2604 21.9729 12.3801 21.92C12.5029 21.8724 12.615 21.8011 12.7101 21.71L15.7101 18.71C15.8984 18.5217 16.0042 18.2663 16.0042 18C16.0042 17.7337 15.8984 17.4783 15.7101 17.29C15.5218 17.1017 15.2664 16.9959 15.0001 16.9959C14.7338 16.9959 14.4784 17.1017 14.2901 17.29ZM18.4201 6.22002C17.8091 4.81602 16.7546 3.65109 15.4182 2.90374C14.0818 2.15639 12.5372 1.86785 11.0211 2.08233C9.50501 2.2968 8.10106 3.00247 7.02439 4.09119C5.94772 5.17991 5.25772 6.59163 5.06013 8.11002C4.10672 8.33834 3.27036 8.90885 2.70987 9.71321C2.14939 10.5176 1.90382 11.4997 2.0198 12.4732C2.13578 13.4467 2.60523 14.3437 3.339 14.9939C4.07277 15.644 5.01976 16.0021 6.00013 16C6.26535 16 6.5197 15.8947 6.70724 15.7071C6.89478 15.5196 7.00013 15.2652 7.00013 15C7.00013 14.7348 6.89478 14.4804 6.70724 14.2929C6.5197 14.1054 6.26535 14 6.00013 14C5.4697 14 4.96099 13.7893 4.58592 13.4142C4.21085 13.0392 4.00013 12.5304 4.00013 12C4.00013 11.4696 4.21085 10.9609 4.58592 10.5858C4.96099 10.2107 5.4697 10 6.00013 10C6.26535 10 6.5197 9.89466 6.70724 9.70712C6.89478 9.51959 7.00013 9.26523 7.00013 9.00002C7.00269 7.81729 7.42442 6.67377 8.1904 5.7726C8.95639 4.87143 10.017 4.27097 11.1839 4.07789C12.3507 3.88481 13.5483 4.11162 14.5637 4.71803C15.5791 5.32443 16.3467 6.27116 16.7301 7.39002C16.7873 7.56186 16.89 7.71495 17.0274 7.83295C17.1648 7.95095 17.3316 8.02943 17.5101 8.06002C18.1762 8.18589 18.78 8.53362 19.2232 9.04655C19.6663 9.55948 19.9227 10.2074 19.9505 10.8847C19.9784 11.5619 19.776 12.2287 19.3764 12.7762C18.9769 13.3238 18.4036 13.7199 17.7501 13.9C17.6228 13.9328 17.5031 13.9904 17.398 14.0695C17.2928 14.1486 17.2043 14.2476 17.1375 14.3609C17.0706 14.4742 17.0267 14.5995 17.0083 14.7298C16.9899 14.86 16.9973 14.9926 17.0301 15.12C17.063 15.2474 17.1206 15.3671 17.1996 15.4722C17.2787 15.5773 17.3777 15.6658 17.491 15.7327C17.6043 15.7995 17.7297 15.8434 17.8599 15.8619C17.9902 15.8803 18.1228 15.8728 18.2501 15.84C19.3025 15.5619 20.2354 14.948 20.9071 14.0915C21.5789 13.235 21.9527 12.1826 21.972 11.0943C21.9912 10.0059 21.6547 8.94106 21.0137 8.06134C20.3727 7.18161 19.462 6.53511 18.4201 6.22002Z" fill="white"/>
</svg>
