<svg width="24" height="24" viewBox="0 0 24 24" fill="none" xmlns="http://www.w3.org/2000/svg">
<path d="M19.8699 8.59998C19.7954 8.42869 19.6744 8.2817 19.5206 8.17566C19.3668 8.06961 19.1865 8.00875 18.9999 7.99998H14.4199L15.6899 3.25998C15.7303 3.11165 15.736 2.956 15.7065 2.80511C15.6771 2.65422 15.6132 2.51217 15.5199 2.38998C15.4267 2.26896 15.3071 2.17089 15.1701 2.10329C15.0332 2.03568 14.8826 2.00034 14.7299 1.99998H7.72988C7.50411 1.99224 7.28238 2.06118 7.1008 2.19555C6.91922 2.32992 6.78848 2.52181 6.72988 2.73998L4.04988 12.74C4.00943 12.8883 4.00373 13.044 4.03321 13.1948C4.06269 13.3457 4.12657 13.4878 4.21988 13.61C4.31406 13.7323 4.4353 13.8312 4.5741 13.8989C4.71289 13.9665 4.86547 14.0011 5.01988 14H8.88988L7.07988 20.74C7.02057 20.9573 7.0364 21.1883 7.12478 21.3955C7.21316 21.6028 7.36893 21.7741 7.56684 21.8817C7.76474 21.9893 7.9932 22.027 8.21518 21.9886C8.43716 21.9501 8.63967 21.8379 8.78988 21.67L19.6899 9.66998C19.8197 9.52786 19.9057 9.35131 19.9376 9.16151C19.9695 8.97171 19.946 8.77674 19.8699 8.59998ZM10.0799 17.28L11.1499 13.28C11.1903 13.1317 11.196 12.976 11.1665 12.8251C11.1371 12.6742 11.0732 12.5322 10.9799 12.41C10.8867 12.289 10.7671 12.1909 10.6301 12.1233C10.4932 12.0557 10.3426 12.0203 10.1899 12.02H6.34988L8.48988 3.99998H13.4199L12.1499 8.73998C12.1091 8.89103 12.1043 9.04955 12.136 9.20278C12.1676 9.35601 12.2348 9.49968 12.332 9.62223C12.4293 9.74479 12.554 9.84281 12.696 9.90841C12.8381 9.97402 12.9935 10.0054 13.1499 9.99998H16.7199L10.0799 17.28Z" fill="white"/>
</svg>
