<svg width="24" height="24" viewBox="0 0 24 24" fill="none" xmlns="http://www.w3.org/2000/svg">
<path d="M18.0002 14C17.4093 14.0039 16.8267 14.1386 16.2942 14.3945C15.7616 14.6504 15.2924 15.0211 14.9202 15.48L9.82015 13.13C10.0599 12.3957 10.0599 11.6042 9.82015 10.87L14.9202 8.51999C15.5218 9.24596 16.3605 9.73607 17.2883 9.90383C18.2161 10.0716 19.1734 9.90622 19.9911 9.4369C20.8088 8.96757 21.4345 8.22447 21.7577 7.33874C22.0809 6.453 22.0808 5.48157 21.7575 4.5959C21.4341 3.71022 20.8083 2.96724 19.9905 2.49806C19.1726 2.02889 18.2154 1.86369 17.2876 2.03162C16.3598 2.19955 15.5212 2.68981 14.9197 3.41589C14.3182 4.14196 13.9925 5.05717 14.0002 5.99999C14.0032 6.23822 14.0266 6.47576 14.0702 6.70999L8.79015 9.13999C8.22723 8.58957 7.5144 8.21751 6.74096 8.07042C5.96752 7.92333 5.16787 8.00776 4.4422 8.31312C3.71653 8.61849 3.09711 9.13121 2.66155 9.78705C2.22599 10.4429 1.99365 11.2127 1.99365 12C1.99365 12.7873 2.22599 13.5571 2.66155 14.2129C3.09711 14.8688 3.71653 15.3815 4.4422 15.6869C5.16787 15.9922 5.96752 16.0767 6.74096 15.9296C7.5144 15.7825 8.22723 15.4104 8.79015 14.86L14.0702 17.29C14.0266 17.5242 14.0032 17.7618 14.0002 18C14.0002 18.7911 14.2347 19.5645 14.6743 20.2223C15.1138 20.8801 15.7385 21.3928 16.4694 21.6955C17.2003 21.9983 18.0046 22.0775 18.7805 21.9231C19.5564 21.7688 20.2692 21.3878 20.8286 20.8284C21.388 20.269 21.769 19.5563 21.9233 18.7804C22.0776 18.0044 21.9984 17.2002 21.6957 16.4693C21.3929 15.7384 20.8802 15.1136 20.2224 14.6741C19.5646 14.2346 18.7913 14 18.0002 14ZM18.0002 3.99999C18.3957 3.99999 18.7824 4.11729 19.1113 4.33705C19.4402 4.55682 19.6965 4.86917 19.8479 5.23463C19.9993 5.60008 20.0389 6.00221 19.9617 6.39017C19.8846 6.77813 19.6941 7.1345 19.4144 7.41421C19.1347 7.69391 18.7783 7.88439 18.3903 7.96156C18.0024 8.03873 17.6002 7.99913 17.2348 7.84775C16.8693 7.69638 16.557 7.44003 16.3372 7.11113C16.1174 6.78223 16.0002 6.39556 16.0002 5.99999C16.0002 5.46956 16.2109 4.96085 16.5859 4.58578C16.961 4.21071 17.4697 3.99999 18.0002 3.99999ZM6.00015 14C5.60459 14 5.21791 13.8827 4.88901 13.6629C4.56011 13.4432 4.30377 13.1308 4.15239 12.7654C4.00102 12.3999 3.96141 11.9978 4.03858 11.6098C4.11575 11.2218 4.30623 10.8655 4.58594 10.5858C4.86564 10.3061 5.22201 10.1156 5.60997 10.0384C5.99793 9.96125 6.40006 10.0009 6.76552 10.1522C7.13097 10.3036 7.44333 10.56 7.66309 10.8889C7.88285 11.2178 8.00015 11.6044 8.00015 12C8.00015 12.5304 7.78944 13.0391 7.41436 13.4142C7.03929 13.7893 6.53058 14 6.00015 14ZM18.0002 20C17.6046 20 17.2179 19.8827 16.889 19.6629C16.5601 19.4432 16.3038 19.1308 16.1524 18.7654C16.001 18.3999 15.9614 17.9978 16.0386 17.6098C16.1158 17.2218 16.3062 16.8655 16.5859 16.5858C16.8656 16.3061 17.222 16.1156 17.61 16.0384C17.9979 15.9613 18.4001 16.0009 18.7655 16.1522C19.131 16.3036 19.4433 16.56 19.6631 16.8889C19.8829 17.2177 20.0002 17.6044 20.0002 18C20.0002 18.5304 19.7894 19.0391 19.4144 19.4142C19.0393 19.7893 18.5306 20 18.0002 20Z" fill="white"/>
</svg>
